<?xml version="1.0" encoding="utf-8"?>
<!-- Generator: Adobe Illustrator 21.0.2, SVG Export Plug-In . SVG Version: 6.00 Build 0)  -->
<svg version="1.1" id="Layer_1" xmlns="http://www.w3.org/2000/svg" xmlns:xlink="http://www.w3.org/1999/xlink" x="0px" y="0px"
	 viewBox="0 0 588.5 503.9" style="enable-background:new 0 0 588.5 503.9;" xml:space="preserve">
<style type="text/css">
	.st0{stroke:#000000;stroke-miterlimit:10;}
</style>
<g transform="translate(0.000000,740.000000) scale(0.100000,-0.100000)">
	<path class="st0" d="M2915,2361.6c198.9-2,399.8,14.1,600,49.3c638,112,1205,406,1639,849c349,358,589,799,682,1256
		c69,340,65,719-11,1041c-178,750-708,1388-1455,1753c-126,62-195,92-195,86c0-2,51-28,114-59c740-364,1289-1052,1440-1806
		c97-481,39-997-160-1432c-372-811-1149-1389-2089-1553c-176.4-31.1-370.9-45.2-565-42.7"/>
	<path class="st0" d="M2915,2503.2c-198.7,2.5-396.9,22.3-575,58.7c-584,121-1068,375-1471,774c-302,300-500,613-624,986
		c-85,256-115,451-115,744c0,214,6,287,41,465c116,587,468,1129,997,1532c111,85,314,210,445,274c61,31,112,58,112,60c0,5,0,5-30-8
		c-382-171-693-379-944-633c-477-484-736-1097-736-1745c0-662,260-1275,751-1770c553.8-558.6,1334.3-871.1,2149-879.3"/>
	<path class="st0" d="M2915,5604.8c-0.8,0-319.6,18.9-415,51.1c-335,112-527,342-543,651c-6,127,14,226,70,343
		c73,154,237,292,429,362c158,58,204,64,454,63l5,52.4c-67.8,1.4-133.9-0.9-194-7.4c-310-33-577-162-720-347
		c-239-312-178-760,137-998c69-52,213-126,297-152c53-16,26-17-762-20c-810-2-818-2-818-22s8-20,985-20h985v-745v-745h-37
		c-58,0-229,28-313,51c-41,11-126,45-189,76c-102,49-123,64-206,146c-66,67-102,112-128,164c-41,78-77,203-77,265v38h-50h-50v-43
		c0-24,9-78,20-121c66-259,282-454,612-555c107-33,274-61,362-61h56v-615v-615h85l2.1,1196.5C2910.1,4534,2910.3,5070.5,2915,5604.8
		z"/>
	<path class="st0" d="M2912.1,3997.4l2.9,1607.4l0,0C2910.3,5070.5,2910.1,4534,2912.1,3997.4z"/>
	<path class="st0" d="M2910,2800.9h9.5c-3.2,398.4-5.9,797.4-7.4,1196.5L2910,2800.9z"/>
	<path class="st0" d="M3873,5600.9c-481.9,0-772.4,0.2-958,3.9l-2.9-1607.4c1.5-399,4.2-798.1,7.4-1196.5h75.5l2,612l3,613l90,7
		c329,28,627,159,781,346c62,76,116,181,140,272c21,78,23,244,5,310c-7,25-14,52-16,61c-6,28-63,128-69,121c-4-3-4,1-1,10
		c4,10-1,21-14,30c-12,8-18,17-15,20c5,5-83,98-138,145c-78,68-256,155-403,197c-44,12,43,14,783,15c825,1,832,1,832,21
		S4968,5600.9,3873,5600.9z M3911,4968.9c20-79,20-235-1-313c-64-242-252-425-532-518c-100-33-278-67-352-67h-31v724
		c0,398,3,731,6,740c7,19,39,20,139,6C3547,5482.9,3832,5270.9,3911,4968.9z"/>
	<path class="st0" d="M3950,6345.9l-94-6l-5,48c-42,341-246,562-613,660c-92,25-112,27-328,27l5,52.4c164.5-3.4,339.1-28.6,463-70.4
		c332-112,554-368,569-656L3950,6345.9z"/>
</g>
</svg>
