<?xml version="1.0" encoding="utf-8"?>
<!-- Generator: Adobe Illustrator 18.1.1, SVG Export Plug-In . SVG Version: 6.00 Build 0)  -->
<svg version="1.1" id="Layer_1" xmlns="http://www.w3.org/2000/svg" xmlns:xlink="http://www.w3.org/1999/xlink" x="0px" y="0px"
	 viewBox="0 0 200 200" enable-background="new 0 0 200 200" xml:space="preserve">
<rect fill="#946492" width="200" height="200"/>
<ellipse fill="#A7A9AC" cx="97.3" cy="83" rx="43.4" ry="57.3"/>
<path fill="none" d="M125.2,118.7c0.6-2.4,1.6-4.4,2.2-6.6c3.2-3.9,3.4-8.9,4.7-13.6c1.5-3.7,2.1-7.6,2.2-11.7
	c0-0.4,0.1-0.7,0.1-1.1c0.7-3.9,0.5-7.8,0.4-11.7c0-1.2-0.4-2.3-1.1-3.3c-0.9-1.9-1.3-4-1.4-6.1c-1.9-11.4-7.6-20.1-17.8-25.8
	c-0.2-0.2-0.4-0.5-0.7-0.7c-4.7-4.3-6.1-4.2-9.7,0.9c-0.4,0.5-0.8,1-1.2,1.6c-0.9,1.1-1.8,2.1-2.9,3c-0.1,0.1-0.2,0.2-0.3,0.3
	c0.2,2.2-1.5,3.7-2.6,5.5c-2,1.1-3.5,2.6-4.7,4.3c-0.1,0.2-0.2,0.3-0.3,0.5c-1.1,1.6-1.9,3.4-2.8,5.1c-1.2,2.5-2.7,4.8-4.3,7
	c-1.6,2-3.2,1.7-4.2-0.6c-0.8-1.9-0.4-3.9-0.4-5.9c-0.6,0.9-1.1,1.9-1.7,2.9c-2.1,3.3-2.8,3.4-6.4,1.8c-3.3-1.5-6.4-1.2-9.5,0.6
	c-1.4,3-0.2,6.1,0,9.2c0,2.9-0.1,5.8-1.4,8.4c0.1,0.4,0.1,0.8,0.2,1.2c0,0.6,0,1.1,0,1.7c-0.1,3.8,0.7,7.6,1.1,11.4
	c0.1,1,0.4,2-0.1,2.9c0,0,0,0,0,0c0.3,0.4,0.7,0.7,0.9,1.2c0.9,2.4,1,5,2.3,7.2c2.1,3.4,5.2,6,8.1,8.7c2.2,2.1,3.2,4.4,3.2,7.5
	c0,4.2-0.8,8.3-0.6,12.5c-0.1,0.4-0.2,0.9-0.4,1.3c0.1,0.4,0.2,0.7,0.2,1.1c2.2,12.6,4.5,25.1,6.8,37.7h27
	c3.6-12,7.1-24.1,10.9-36.1c0.4-1.4,0.6-3.2,2.5-3.6c0.4-0.1,0.7,0.1,1,0.3c0,0,0,0,0,0c0,0,0,0,0,0c0,0,0,0,0,0c0,0,0,0,0,0
	c0,0,0,0,0,0c-0.4-0.4-0.4-0.9-0.2-1.5c0.3-0.4,0.7-0.6,1.2-0.7c-1-3.2-0.4-6.7-0.9-10C124.8,123.4,124.6,121,125.2,118.7z"/>
<path fill="#C2C2C2" d="M124.6,137.9C124.6,137.9,124.6,137.9,124.6,137.9C124.6,137.9,124.6,137.9,124.6,137.9
	C124.6,137.9,124.6,137.9,124.6,137.9z"/>
<path fill="none" d="M125.2,118.7c0.6-2.4,1.6-4.4,2.2-6.6c3.2-3.9,3.4-8.9,4.7-13.6c1.5-3.7,2.1-7.6,2.2-11.7
	c0-0.4,0.1-0.7,0.1-1.1c0.7-3.9,0.5-7.8,0.4-11.7c0-1.2-0.4-2.3-1.1-3.3c-0.9-1.9-1.3-4-1.4-6.1c-1.9-11.4-7.6-20.1-17.8-25.8
	c-0.2-0.2-0.4-0.5-0.7-0.7c-4.7-4.3-6.1-4.2-9.7,0.9c-0.4,0.5-0.8,1-1.2,1.6c-0.9,1.1-1.8,2.1-2.9,3c-0.1,0.1-0.2,0.2-0.3,0.3
	c0.2,2.2-1.5,3.7-2.6,5.5c-2,1.1-3.5,2.6-4.7,4.3c-0.1,0.2-0.2,0.3-0.3,0.5c-1.1,1.6-1.9,3.4-2.8,5.1c-1.2,2.5-2.7,4.8-4.3,7
	c-1.6,2-3.2,1.7-4.2-0.6c-0.8-1.9-0.4-3.9-0.4-5.9c-0.6,0.9-1.1,1.9-1.7,2.9c-2.1,3.3-2.8,3.4-6.4,1.8c-3.3-1.5-6.4-1.2-9.5,0.6
	c-1.4,3-0.2,6.1,0,9.2c0,2.9-0.1,5.8-1.4,8.4c0.1,0.4,0.1,0.8,0.2,1.2c0,0.6,0,1.1,0,1.7c-0.1,3.8,0.7,7.6,1.1,11.4
	c0.1,1,0.4,2-0.1,2.9c0,0,0,0,0,0c0.3,0.4,0.7,0.7,0.9,1.2c0.9,2.4,1,5,2.3,7.2c2.1,3.4,5.2,6,8.1,8.7c2.2,2.1,3.2,4.4,3.2,7.5
	c0,4.2-0.8,8.3-0.6,12.5c-0.1,0.4-0.2,0.9-0.4,1.3c0.1,0.4,0.2,0.7,0.2,1.1c2.2,12.6,4.5,25.1,6.8,37.7h27
	c3.6-12,7.1-24.1,10.9-36.1c0.4-1.4,0.6-3.2,2.5-3.6c0.4-0.1,0.7,0.1,1,0.3c0,0,0,0,0,0c0,0,0,0,0,0c-0.4-0.4-0.4-0.9-0.2-1.5
	c0.3-0.4,0.7-0.6,1.2-0.7c-1-3.2-0.4-6.7-0.9-10C124.8,123.4,124.6,121,125.2,118.7z"/>
<path fill="none" d="M76.8,129.3c0.1-0.7,0.1-1.3,0.1-2C76.9,128,76.9,128.7,76.8,129.3z"/>
<path fill="#DDDDDD" d="M124.6,137.9C124.6,137.9,124.6,137.9,124.6,137.9C124.6,137.9,124.6,137.9,124.6,137.9L124.6,137.9z"/>
<path fill="#545454" d="M124.8,126.4c0.3,2.6,0,5.2,0.5,7.8C125.7,131.6,125.2,129,124.8,126.4z"/>
<path fill="#545454" d="M77.1,124.2c-0.1,0.6-0.1,1.2-0.1,1.7c0,0.5,0,0.9,0,1.4c0.1-0.9,0.1-1.8,0.1-2.6
	C77.1,124.5,77.1,124.4,77.1,124.2z"/>
<path fill="#545454" d="M69.1,136.7c-0.3,0.1-0.5,0.2-0.8,0.3C68.6,136.9,68.9,136.8,69.1,136.7z"/>
<path fill="#545454" d="M64.7,138.1c-0.4,0.1-0.8,0.3-1.3,0.4C63.9,138.4,64.3,138.3,64.7,138.1z"/>
<path fill="#545454" d="M70.7,136.1c-0.2,0.1-0.4,0.2-0.6,0.2C70.3,136.2,70.5,136.2,70.7,136.1z"/>
<path fill="#545454" d="M65.9,137.8c-0.4,0.1-0.8,0.3-1.2,0.4C65.1,138,65.5,137.9,65.9,137.8z"/>
<path fill="#545454" d="M69.9,136.4c-0.2,0.1-0.5,0.2-0.7,0.3C69.4,136.6,69.7,136.5,69.9,136.4z"/>
<path fill="#545454" d="M68.1,137c-0.3,0.1-0.6,0.2-1,0.3C67.5,137.2,67.8,137.1,68.1,137z"/>
<path fill="#545454" d="M67.1,137.4c-0.3,0.1-0.7,0.2-1.1,0.3C66.4,137.6,66.8,137.5,67.1,137.4z"/>
<path fill="#545454" d="M73.9,117.2c0,0,0.7,1,1.9,2.4C75.3,118.7,74.7,117.9,73.9,117.2z"/>
<path fill="#545454" d="M127.9,136.9c-0.7-0.1-1.3-0.3-2-0.4C126.6,136.6,127.2,136.8,127.9,136.9z"/>
<path fill="#545454" d="M73.9,136c-0.1-0.1-0.2-0.1-0.3-0.2C73.8,135.9,73.9,136,73.9,136z"/>
<path fill="#545454" d="M74.1,136.1c0.3,0.2,0.5,0.4,0.7,0.6c0,0,0,0,0,0C74.5,136.5,74.3,136.3,74.1,136.1z"/>
<path fill="#DDDDDD" d="M69.2,136.7C69.2,136.7,69.1,136.7,69.2,136.7C69.1,136.7,69.2,136.7,69.2,136.7z"/>
<path fill="#DDDDDD" d="M70.1,136.3c-0.1,0-0.1,0-0.2,0.1C70,136.4,70,136.3,70.1,136.3z"/>
<path fill="#DDDDDD" d="M129.6,137.3c-0.6-0.1-1.2-0.3-1.8-0.4C128.5,137,129.1,137.1,129.6,137.3z"/>
<path fill="#DDDDDD" d="M74.1,136.1c0,0-0.1,0-0.1-0.1C74,136,74,136.1,74.1,136.1z"/>
<path fill="#DDDDDD" d="M64.7,138.1C64.7,138.1,64.7,138.1,64.7,138.1C64.7,138.1,64.7,138.1,64.7,138.1z"/>
<path fill="#DDDDDD" d="M70.7,136.1c1.2-0.7,2.2-0.6,3-0.2C72.9,135.5,72,135.4,70.7,136.1z"/>
<path fill="#DDDDDD" d="M68.3,137c-0.1,0-0.1,0-0.2,0.1C68.2,137,68.2,137,68.3,137z"/>
<path fill="#939598" d="M125.3,134.2c0.4-2.6-0.1-5.2-0.5-7.8c0-0.2,0-0.4-0.1-0.6c0.1-2.4-0.2-4.7,0.4-7c0.6-2.4,1.6-4.4,2.2-6.6
	c-24.6,24.4-34.4,17.6-38.9,16.3c-2.4-0.7-10-5.8-12.7-8.9c0.8,1.3,1.2,2.8,1.3,4.6c-0.1,0.6-0.1,1.2-0.1,1.7c0,0.5,0,0.9,0,1.4
	c0,0.7-0.1,1.3-0.1,2c-0.2,1.7-0.5,3.4-1.1,5.1c-0.6,0.7-0.6,1.5-1,2.3c0,0,0,0,0,0c1,1.1,1.5,2.7,1.6,3c2.2,12.6,4.5,25.1,6.8,37.7
	h27c3.6-12,7.1-24.1,10.9-36.1c0.4-1.4,2.4-5,4.8-4.7c-0.1-0.3-0.2-0.5-0.3-0.8C125.5,135.2,125.4,134.7,125.3,134.2z"/>
<path fill="#DDDDDD" d="M63.4,138.5C63.4,138.5,63.4,138.6,63.4,138.5C63.4,138.6,63.4,138.5,63.4,138.5z"/>
<path fill="#DDDDDD" d="M66,137.7c0,0-0.1,0-0.1,0C66,137.7,66,137.7,66,137.7z"/>
<path fill="#DDDDDD" d="M67.2,137.4C67.1,137.4,67.1,137.4,67.2,137.4C67.1,137.4,67.1,137.4,67.2,137.4z"/>
<path fill="#545454" d="M156.7,79.9c-1.7-14.6-4-29-10.4-42.5c-8.8-18.6-23.1-29.5-43.9-31.9C82,3.2,66.1,11.3,57.2,29.3
	c-4.3,8.2-6.9,16.9-8.4,26c-2,8.8-2.6,17.7-3.7,26.6c-0.7,7-3.8,12.4-10,16l0,0c-6.6,3-13.6,3.9-20.8,4.5c4.2,3,8.8,4.8,13.7,5.7
	c1.6,0.4,3.1,0.8,4.7,1.2c-0.3,0.2-0.6,0.4-0.9,0.6c-2.5,0-5.1,0.3-7.6,0c-2.7-0.3-2.6,1-2,2.9c2.4,8.2,7.2,11.8,16.1,12.3
	c1,0.1,2.5-0.6,2.9,0.8c0.4,1.3-0.5,2.5-1.5,3.5c-1.2,1.2-2.8,1.3-4.3,1.4c-1.2,0.1-2.6-0.4-3.8,0.7c1.2,1.9,2.8,3.3,4.3,4.8
	c3.4,3.2,7.8,4.7,11.6,7.1c2.1-0.6,8.9-2.5,14.8-4.3c0,0,0,0,0,0c0,0,0.1,0,0.1,0c0.4-0.1,0.8-0.3,1.3-0.4c0,0,0,0,0,0
	c0.4-0.1,0.9-0.3,1.3-0.4c0,0,0,0,0,0c0.4-0.1,0.8-0.3,1.2-0.4c0,0,0.1,0,0.1,0c0.4-0.1,0.7-0.2,1.1-0.3c0,0,0,0,0.1,0
	c0.3-0.1,0.7-0.2,1-0.3c0.1,0,0.1,0,0.2-0.1c0.3-0.1,0.6-0.2,0.8-0.3c0,0,0,0,0,0c0.3-0.1,0.5-0.2,0.7-0.3c0.1,0,0.1,0,0.2-0.1
	c0.2-0.1,0.4-0.2,0.6-0.2c0,0,0,0,0,0c1.3-0.7,2.2-0.6,3-0.2c0.1,0,0.2,0.1,0.3,0.2c0,0,0.1,0,0.1,0.1c0.3,0.2,0.5,0.4,0.7,0.6
	c0,0,0,0,0,0c0.3-0.8,0.4-1.6,1-2.3c0.6-1.7,0.9-3.3,1.1-5.1c0.1-0.7,0.1-1.3,0.1-2c0-0.5,0-0.9,0-1.4c0-0.6-0.1-1.2,0.1-1.7
	c-0.1-1.8-0.5-3.3-1.3-4.6c-1.2-1.4-1.9-2.4-1.9-2.4c-2.8-2.8-6-5.3-8.1-8.7c-1.3-2.2-3-10.3-3.1-11.3c-0.4-3.8-1.1-7.5-1.1-11.4
	c0-0.6,1.1-8.4,1.1-11.4c-0.2-3.1-1.4-6.1,0-9.2c3.1-1.8,6.2-2.1,9.5-0.6c3.6,1.7,4.3,1.5,6.4-1.8c0.6-0.9,1.1-1.9,1.7-2.9
	c0,2-0.3,4,0.4,5.9c1,2.4,7.3-3.9,8.5-6.4c0.9-1.7,1.7-3.5,2.8-5.1c0.1-0.2,7.7-8.1,7.6-10.3c0.1-0.1,0.2-0.2,0.3-0.3
	c1.1-0.9,2-1.9,2.9-3c0.4-0.5,0.8-1.1,1.2-1.6c3.7-5.1,5-5.2,9.7-0.9c0.2,0.2,0.4,0.5,0.7,0.7c10.2,5.7,15.9,14.4,17.8,25.8
	c0.2,2.1,0.6,4.2,1.4,6.1c0.7,1,1.1,2.1,1.1,3.3c0.1,3.9,0.3,7.8-0.4,11.7c-0.1,0.4-0.1,0.7-0.1,1.1c-0.1,4-0.7,7.9-2.2,11.7
	c-1.3,4.6-1.5,9.7-4.7,13.6c-0.6,2.2-1.6,4.2-2.2,6.6c-0.6,2.3-0.4,4.7-0.4,7c0,0.2,0.1,0.4,0.1,0.6c0.4,2.6,0.9,5.2,0.5,7.8
	c0.1,0.5,0.2,1,0.4,1.5c0.1,0.3,0.2,0.5,0.3,0.8c0.7,0.1,1.3,0.2,2,0.4c0.6,0.1,1.2,0.2,1.8,0.4c4.9,1.1,9.7,2.7,14.5,3.9v0
	c0.2-0.4,0.3-0.8,0.5-1.2c5.7-5.7,8.7-12.8,10.6-20.4C158.6,106.5,158.3,93.2,156.7,79.9z"/>
<path fill="none" d="M5.7,186.4c-0.2-0.5-0.1-1,0.1-1.6c2.3-6.5,3.8-13.2,6.8-19.5c4.2-8.7,10.3-15,20.1-17.4
	c4.9-1.2,9.7-3,14.6-4.5c2.1-0.6,8.9-2.5,14.8-4.3c3.7-1.1,7-2.2,8.6-2.9c0,0,0,0,0,0c3.9-2.1,5.5,3.2,5.6,3.6
	c2.2,12.6,4.5,25.1,6.8,37.7h27c3.6-12,7.1-24.1,10.9-36.1c0.4-1.4,2.4-5,4.8-4.7c1.3,0.2,2.5,0.4,3.7,0.7c4.9,1.1,9.7,2.7,14.5,3.9
	v0l0,0c7.4,2,14.7,4.3,22.1,6.1c7,1.6,12.2,5.6,16.2,11.4c5.7,8.3,9.1,17.7,13,26.9c0.7,0.6,1.3,1.2,1.9,1.9c0.9,1,1.8,1.9,2.6,2.9
	V0H0v197.2c1.1-1.4,2.1-2.8,3-4.4C4,190.7,4.8,188.6,5.7,186.4z"/>
<path fill="#414042" d="M197.4,187.4c-0.6-0.6-1.2-1.3-1.9-1.9c-3.9-9.2-7.3-18.6-13-26.9c-4-5.8-9.2-9.8-16.2-11.4
	c-7.4-1.7-14.8-4-22.1-6.1l0,0v0c-4.9-1.2-9.6-2.8-14.5-3.9c-1.2-0.3-2.5-0.5-3.7-0.7c-2.5-0.3-4.4,3.3-4.8,4.7
	c-3.8,12-7.3,24-10.9,36.1h-27c-2.3-12.5-4.6-25.1-6.8-37.7c-0.1-0.4-1.7-5.7-5.6-3.6c0,0,0,0,0,0c-1.6,0.7-5,1.8-8.6,2.9
	c-5.9,1.8-12.7,3.7-14.8,4.3c-4.9,1.5-9.7,3.3-14.6,4.5c-9.8,2.4-16,8.7-20.1,17.4c-3,6.2-4.5,13-6.8,19.5c-0.2,0.6-0.3,1.1-0.1,1.6
	c-0.8,2.2-1.7,4.3-2.6,6.4c-0.9,1.5-1.9,3-3,4.4v2.8h200v-9.6C199.1,189.4,198.3,188.4,197.4,187.4z"/>
</svg>
